<?xml version="1.0" encoding="utf-8"?>
<!-- Generator: Adobe Illustrator 16.0.4, SVG Export Plug-In . SVG Version: 6.00 Build 0)  -->
<!DOCTYPE svg PUBLIC "-//W3C//DTD SVG 1.1//EN" "http://www.w3.org/Graphics/SVG/1.1/DTD/svg11.dtd">
<svg version="1.1" id="Calque_1" xmlns="http://www.w3.org/2000/svg" xmlns:xlink="http://www.w3.org/1999/xlink" x="0px" y="0px"
	 width="300px" height="300px" viewBox="0 0 300 300" enable-background="new 0 0 300 300" xml:space="preserve">
<circle fill="none" stroke="#C89108" stroke-width="7" stroke-miterlimit="10" cx="150.221" cy="150.051" r="93.369"/>
<circle fill="none" stroke="#C89108" stroke-width="9" stroke-miterlimit="10" cx="150.221" cy="150.051" r="71.822"/>
<rect x="27.492" y="120.695" transform="matrix(0.9397 -0.342 0.342 0.9397 -40.588 62.0547)" fill="#FFFFFF" stroke="#FFFFFF" stroke-width="0.75" stroke-miterlimit="10" width="256.355" height="50.848"/>
<g>
	<path fill="#C89108" d="M58.838,198.557c-1.113,1.342-2.767,2.412-4.961,3.211c-1.864,0.678-3.707,0.881-5.525,0.605
		c-1.82-0.273-3.542-0.957-5.166-2.053c-1.624-1.094-3.112-2.562-4.464-4.402c-1.351-1.841-2.475-3.994-3.372-6.461
		c-0.908-2.495-1.44-4.891-1.594-7.184c-0.153-2.294,0.043-4.375,0.589-6.242c0.547-1.867,1.431-3.483,2.654-4.848
		c1.222-1.365,2.767-2.387,4.631-3.064c2.135-0.777,4.056-1.043,5.764-0.795c1.707,0.246,3.204,0.783,4.493,1.607l-1.975,6.645
		c-0.805-0.525-1.621-0.875-2.45-1.049c-0.831-0.176-1.757-0.076-2.778,0.295c-0.963,0.352-1.704,0.91-2.225,1.678
		c-0.521,0.77-0.867,1.688-1.041,2.755s-0.159,2.255,0.044,3.56c0.202,1.305,0.556,2.65,1.06,4.033s1.094,2.633,1.772,3.748
		c0.678,1.115,1.43,2.033,2.255,2.754c0.824,0.723,1.689,1.207,2.598,1.455c0.908,0.25,1.843,0.198,2.806-0.152
		c0.962-0.35,1.716-0.896,2.263-1.641c0.547-0.743,0.91-1.523,1.09-2.338l5.838,3.545C60.718,195.771,59.951,197.216,58.838,198.557
		z"/>
	<path fill="#C89108" d="M82.407,172.229c0.919,2.525,1.473,4.938,1.662,7.234c0.189,2.299,0.026,4.377-0.49,6.232
		c-0.517,1.857-1.386,3.467-2.608,4.832c-1.224,1.364-2.782,2.391-4.677,3.08c-1.895,0.69-3.749,0.905-5.562,0.646
		c-1.815-0.26-3.516-0.934-5.104-2.025c-1.59-1.09-3.05-2.576-4.382-4.458s-2.457-4.085-3.377-6.611
		c-0.919-2.526-1.476-4.921-1.669-7.183s-0.03-4.313,0.492-6.155c0.521-1.841,1.396-3.437,2.625-4.786s2.805-2.375,4.729-3.076
		c1.895-0.689,3.746-0.911,5.555-0.668c1.809,0.244,3.505,0.904,5.088,1.98c1.583,1.074,3.035,2.539,4.356,4.391
		C80.366,167.514,81.487,169.703,82.407,172.229z M75.01,174.92c-0.504-1.383-1.078-2.629-1.72-3.74
		c-0.644-1.111-1.325-2.029-2.05-2.754c-0.723-0.725-1.476-1.226-2.258-1.502c-0.781-0.277-1.578-0.27-2.391,0.027
		c-0.812,0.295-1.436,0.803-1.871,1.523c-0.437,0.721-0.698,1.591-0.787,2.611c-0.088,1.02-0.015,2.158,0.223,3.418
		c0.236,1.26,0.606,2.58,1.11,3.963c0.503,1.383,1.071,2.641,1.705,3.771c0.633,1.133,1.312,2.061,2.034,2.785
		c0.725,0.724,1.487,1.229,2.29,1.516c0.802,0.287,1.609,0.283,2.421-0.014c0.812-0.295,1.426-0.807,1.841-1.537
		c0.416-0.73,0.667-1.605,0.756-2.625s0.019-2.169-0.208-3.449C75.878,177.637,75.513,176.305,75.01,174.92z"/>
	<path fill="#C89108" d="M106.429,181.67l-14.474-16.748l-0.135,0.049l7.256,19.375l-6.45,2.348l-11.623-31.935l7.938-2.89
		l14.526,17.035l0.136-0.049l-7.31-19.662l6.225-2.266l11.623,31.933L106.429,181.67z"/>
	<path fill="#C89108" d="M117.826,148.711l2.381,6.541l7.624-2.775l2.249,6.18l-7.578,2.758l4.63,12.721l-7.308,2.658
		l-11.623-31.933l15.562-5.664l2.364,6.495L117.826,148.711z"/>
	<path fill="#C89108" d="M139.311,169.701l-11.623-31.934l7.261-2.643l11.623,31.934L139.311,169.701z"/>
	<path fill="#C89108" d="M168.713,141.019c0.876,2.406,1.404,4.683,1.59,6.828c0.187,2.146-0.012,4.108-0.59,5.885
		c-0.579,1.777-1.566,3.346-2.962,4.703c-1.395,1.361-3.235,2.455-5.521,3.287l-8.976,3.268l-11.623-31.934l8.976-3.268
		c2.285-0.831,4.399-1.175,6.342-1.031c1.942,0.145,3.709,0.719,5.301,1.723c1.591,1.004,3.009,2.396,4.251,4.173
		C166.744,136.432,167.816,138.554,168.713,141.019z M161.451,143.663c-1.172-3.217-2.604-5.445-4.299-6.685
		c-1.694-1.239-3.413-1.542-5.156-0.907l-1.76,0.64l7.026,19.305l1.76-0.641c1.743-0.635,2.866-1.97,3.367-4.01
		C162.891,149.328,162.578,146.76,161.451,143.663z"/>
	<path fill="#C89108" d="M178.866,155.305l-11.623-31.935l15.426-5.615l2.315,6.36l-8.525,3.103l2.282,6.27l7.848-2.856l2.167,5.954
		l-7.848,2.856l2.495,6.856l9.065-3.3l2.364,6.495L178.866,155.305z"/>
	<path fill="#C89108" d="M212.875,142.926l-14.473-16.748l-0.135,0.049l7.255,19.375l-6.449,2.347l-11.623-31.934l7.938-2.889
		l14.527,17.035l0.136-0.049l-7.311-19.662l6.225-2.266l11.623,31.934L212.875,142.926z"/>
	<path fill="#C89108" d="M226.939,108.589l9.391,25.8l-7.081,2.577l-9.391-25.8l-5.864,2.134l-2.232-6.134l18.809-6.846l2.232,6.134
		L226.939,108.589z"/>
	<path fill="#C89108" d="M244.99,131.237l-11.623-31.934l15.427-5.615l2.314,6.36l-8.525,3.103l2.282,6.27l7.848-2.856l2.167,5.954
		l-7.848,2.856l2.495,6.856l9.066-3.3l2.363,6.495L244.99,131.237z"/>
	<path fill="#C89108" d="M265.197,123.882l-11.623-31.935l7.307-2.659l9.193,25.259l8.525-3.103l2.43,6.675L265.197,123.882z"/>
</g>
<g>
</g>
<g>
</g>
<g>
</g>
<g>
</g>
<g>
</g>
<g>
</g>
</svg>
